<svg xmlns="http://www.w3.org/2000/svg" width="16" height="17" viewBox="0 0 16 17">
  <g id="Captions" transform="translate(0 0.001)">
    <g id="Group_44723" data-name="Group 44723" transform="translate(0 0)">
      <path id="Union_8" data-name="Union 8" d="M3.146,16.849a3.207,3.207,0,0,1-3-3,78.831,78.831,0,0,1-.01-9.559,3.2,3.2,0,0,1,3.2-3.006h.824V.642a.64.64,0,1,1,1.28,0v.641h5.119V.642a.64.64,0,1,1,1.28,0v.641h.823a3.206,3.206,0,0,1,3.2,3.006,78.83,78.83,0,0,1-.012,9.559,3.206,3.206,0,0,1-2.994,3C11.244,16.949,9.623,17,8,17S4.756,16.949,3.146,16.849ZM1.43,13.768a1.924,1.924,0,0,0,1.8,1.8,77.142,77.142,0,0,0,9.551,0,1.925,1.925,0,0,0,1.8-1.8c.151-2.437.183-4.9.1-7.352H1.328C1.247,8.865,1.278,11.33,1.43,13.768Zm-.011-9.4c-.016.254-.022.51-.035.766H14.616c-.012-.256-.019-.512-.033-.766a1.922,1.922,0,0,0-1.919-1.8h-.823v.642a.64.64,0,1,1-1.28,0V2.566H5.441v.642a.64.64,0,1,1-1.28,0V2.566H3.337A1.919,1.919,0,0,0,1.419,4.367ZM10.24,12.51a.96.96,0,1,1,.961.963A.961.961,0,0,1,10.24,12.51Zm-3.2,0A.96.96,0,1,1,8,13.473.961.961,0,0,1,7.04,12.51Zm-3.2,0a.96.96,0,1,1,.961.963A.962.962,0,0,1,3.84,12.51ZM10.24,9.3a.96.96,0,1,1,.961.963A.962.962,0,0,1,10.24,9.3Zm-3.2,0A.96.96,0,1,1,8,10.265.962.962,0,0,1,7.04,9.3Zm-3.2,0a.96.96,0,1,1,.961.963A.962.962,0,0,1,3.84,9.3Z" transform="translate(0 -0.001)" fill="#35363b"/>
    </g>
  </g>
</svg>
