<svg id="Group_45521" data-name="Group 45521" xmlns="http://www.w3.org/2000/svg" width="12.176" height="14.035" viewBox="0 0 12.176 14.035">
  <path id="Path_44790" data-name="Path 44790" d="M11.419,2.838V1.783a.507.507,0,1,0-1.015,0V2.8h-4.4V1.783a.507.507,0,1,0-1.015,0V2.838A2.873,2.873,0,0,0,2.145,5.713a.34.34,0,0,0,.338.359H13.929a.336.336,0,0,0,.338-.359A2.873,2.873,0,0,0,11.419,2.838Z" transform="translate(-2.118 -1.275)" fill="#8a1538"/>
  <path id="Path_44791" data-name="Path 44791" d="M13.625,5.45H2.8a.678.678,0,0,0-.676.676v4.167a3.034,3.034,0,0,0,3.382,3.382h5.412A3.034,3.034,0,0,0,14.3,10.294V6.127A.678.678,0,0,0,13.625,5.45Zm-7.3,5.662a.781.781,0,0,1-.223.142.638.638,0,0,1-.514,0,.781.781,0,0,1-.223-.142.686.686,0,0,1,0-.961.781.781,0,0,1,.223-.142.677.677,0,0,1,.514,0,.781.781,0,0,1,.223.142.686.686,0,0,1,0,.961Zm.142-2.591a.61.61,0,0,1-.365.365.638.638,0,0,1-.514,0,.61.61,0,0,1-.365-.365.638.638,0,0,1,0-.514.61.61,0,0,1,.365-.365.677.677,0,0,1,.514,0,.61.61,0,0,1,.365.365.638.638,0,0,1,0,.514Zm2.226.223a.781.781,0,0,1-.223.142.638.638,0,0,1-.514,0,.781.781,0,0,1-.223-.142.686.686,0,0,1,0-.961.781.781,0,0,1,.223-.142.62.62,0,0,1,.514,0,.781.781,0,0,1,.223.142.686.686,0,0,1,0,.961Z" transform="translate(-2.125 0.359)" fill="#8a1538"/>
</svg>
