<svg id="clock_11_" data-name="clock (11)" xmlns="http://www.w3.org/2000/svg" width="18.337" height="18.337" viewBox="0 0 18.337 18.337">
  <g id="Group_44725" data-name="Group 44725" transform="translate(8.458 4.254)">
    <g id="Group_44724" data-name="Group 44724">
      <path id="Path_44771" data-name="Path 44771" d="M240.146,125.313l-2.557-1.917v-3.906a.71.71,0,0,0-1.42,0v4.261a.709.709,0,0,0,.284.568l2.841,2.131a.71.71,0,0,0,.852-1.136Z" transform="translate(-236.169 -118.779)"/>
    </g>
  </g>
  <g id="Group_44727" data-name="Group 44727">
    <g id="Group_44726" data-name="Group 44726">
      <path id="Path_44772" data-name="Path 44772" d="M9.168,0a9.168,9.168,0,1,0,9.168,9.168A9.178,9.178,0,0,0,9.168,0Zm0,16.916a7.748,7.748,0,1,1,7.748-7.748A7.758,7.758,0,0,1,9.168,16.916Z"/>
    </g>
  </g>
</svg>
