<svg xmlns="http://www.w3.org/2000/svg" width="14.471" height="14.471" viewBox="0 0 14.471 14.471">
    <g id="Group_45542" data-name="Group 45542" transform="translate(0.25 0.25)">
        <path id="Path_44794" data-name="Path 44794" d="M159.093,160.259a1.16,1.16,0,0,1-.823-.341l-11.643-11.643a1.164,1.164,0,0,1,1.646-1.646l11.643,11.643a1.164,1.164,0,0,1-.823,1.987Zm0,0" transform="translate(-146.286 -146.288)" fill="#fff" stroke="#fff" stroke-width="0.5" />
        <path id="Path_44795" data-name="Path 44795" d="M147.45,160.257a1.164,1.164,0,0,1-.823-1.987l11.643-11.643a1.164,1.164,0,0,1,1.646,1.646l-11.643,11.643A1.16,1.16,0,0,1,147.45,160.257Zm0,0" transform="translate(-146.286 -146.286)" fill="#fff" stroke="#fff" stroke-width="0.5" />
    </g>
</svg>
