<svg id="Group_38211" data-name="Group 38211" xmlns="http://www.w3.org/2000/svg" xmlns:xlink="http://www.w3.org/1999/xlink" width="21.365" height="18.25" viewBox="0 0 21.365 18.25">
  <defs>
    <clipPath id="clip-path">
      <rect id="Rectangle_17428" data-name="Rectangle 17428" width="21.365" height="18.249" fill="#70193d"/>
    </clipPath>
  </defs>
  <g id="Group_38210" data-name="Group 38210" transform="translate(0 0)" clip-path="url(#clip-path)">
    <path id="Path_36848" data-name="Path 36848" d="M18.936,5.584H13.594V2.429A2.431,2.431,0,0,0,11.167,0H2.428A2.431,2.431,0,0,0,0,2.429V8.255a2.43,2.43,0,0,0,2.428,2.428V11.7a.971.971,0,0,0,1.659.683.518.518,0,0,0,.048-.056l1.208-1.643H7.768v3.156A2.43,2.43,0,0,0,10.2,16.266h5.383l1.7,1.7a.971.971,0,0,0,1.658-.687V16.266a2.43,2.43,0,0,0,2.428-2.428V8.013a2.431,2.431,0,0,0-2.428-2.429M5.1,9.711a.483.483,0,0,0-.388.2L3.4,11.687V10.2a.487.487,0,0,0-.487-.486H2.428A1.456,1.456,0,0,1,.971,8.255V2.429A1.455,1.455,0,0,1,2.428.972h8.739a1.455,1.455,0,0,1,1.457,1.457V5.584H10.2a2.4,2.4,0,0,0-1.432.479L7.239,2.713a.486.486,0,0,0-.885,0L3.927,8.054a.485.485,0,0,0,.242.642h0a.45.45,0,0,0,.2.044.482.482,0,0,0,.441-.284L5.564,6.8H8.03l.035.075a2.4,2.4,0,0,0-.3,1.139v1.7ZM7.589,5.827H6.007L6.8,4.087Zm12.8,8.012A1.457,1.457,0,0,1,18.936,15.3h-.486a.486.486,0,0,0-.486.486v1.5l-1.842-1.842a.491.491,0,0,0-.343-.142H10.2A1.456,1.456,0,0,1,8.74,13.839V8.013A1.456,1.456,0,0,1,10.2,6.555h8.74a1.457,1.457,0,0,1,1.457,1.458Z" transform="translate(0 -0.001)" fill="#70193d"/>
    <path id="Path_36849" data-name="Path 36849" d="M14.774,7.746H12.832V6.775a.486.486,0,0,0-.971,0v.971H9.919a.486.486,0,1,0,0,.971h3.6a3.378,3.378,0,0,1-1.179,2.111,3.4,3.4,0,0,1-.885-1.14.486.486,0,0,0-.887.4l.01.02a4.287,4.287,0,0,0,.91,1.249,3.453,3.453,0,0,1-1.365.277.471.471,0,0,0-.468.473v.012a.5.5,0,0,0,.5.486,4.34,4.34,0,0,0,2.2-.6,4.418,4.418,0,0,0,2.209.6.471.471,0,0,0,.469-.473v-.012a.5.5,0,0,0-.5-.486,3.376,3.376,0,0,1-1.321-.274A4.345,4.345,0,0,0,14.5,8.717h.272a.486.486,0,1,0,0-.971" transform="translate(2.221 1.48)" fill="#70193d"/>
  </g>
</svg>
