<svg id="Group_38213" data-name="Group 38213" xmlns="http://www.w3.org/2000/svg" xmlns:xlink="http://www.w3.org/1999/xlink" width="19.67" height="21.475" viewBox="0 0 19.67 21.475">
  <defs>
    <clipPath id="clip-path">
      <rect id="Rectangle_17429" data-name="Rectangle 17429" width="19.67" height="21.475" fill="none"/>
    </clipPath>
  </defs>
  <g id="Group_38212" data-name="Group 38212" clip-path="url(#clip-path)">
    <path id="Path_36850" data-name="Path 36850" d="M9.836,20.554a9.843,9.843,0,0,0,3.938-18.86.9.9,0,1,0-.725,1.637l.009,0a8.053,8.053,0,1,1-6.444,0,.894.894,0,1,0-.706-1.643l-.009,0a9.843,9.843,0,0,0,3.938,18.86" transform="translate(0 0.92)" fill="#172b4d"/>
    <path id="Path_36851" data-name="Path 36851" d="M6.592,8.947a.894.894,0,0,0,.895-.895V.895A.895.895,0,1,0,5.7.895V8.053a.894.894,0,0,0,.895.895" transform="translate(3.244 -0.001)" fill="#172b4d"/>
  </g>
</svg>
