<svg id="Group_38199" data-name="Group 38199" xmlns="http://www.w3.org/2000/svg" xmlns:xlink="http://www.w3.org/1999/xlink" width="15.693" height="17.814" viewBox="0 0 15.693 17.814">
  <defs>
    <clipPath id="clip-path">
      <rect id="Rectangle_17422" data-name="Rectangle 17422" width="15.693" height="17.814" fill="#70193d"/>
    </clipPath>
  </defs>
  <g id="Group_38198" data-name="Group 38198" transform="translate(0 0)" clip-path="url(#clip-path)">
    <path id="Path_36834" data-name="Path 36834" d="M7.26,9.537h0a4.768,4.768,0,0,0,4.766-4.769A4.768,4.768,0,1,0,7.26,9.537M3.819,4.769A3.442,3.442,0,1,1,7.261,8.21,3.445,3.445,0,0,1,3.819,4.769" transform="translate(0.586 0)" fill="#70193d"/>
    <path id="Path_36835" data-name="Path 36835" d="M13.7,10.341A6.762,6.762,0,0,0,8.878,8.305H6.817A6.88,6.88,0,0,0,0,15.2a.663.663,0,0,0,.663.662H15.031a.663.663,0,0,0,.663-.662,6.836,6.836,0,0,0-2-4.855m.63,4.192H1.365a5.5,5.5,0,0,1,5.456-4.9H8.873a5.5,5.5,0,0,1,5.457,4.9" transform="translate(0 1.955)" fill="#70193d"/>
  </g>
</svg>
