<svg id="Group_38207" data-name="Group 38207" xmlns="http://www.w3.org/2000/svg" xmlns:xlink="http://www.w3.org/1999/xlink" width="13.552" height="16.263" viewBox="0 0 13.552 16.263">
  <defs>
    <clipPath id="clip-path">
      <rect id="Rectangle_17426" data-name="Rectangle 17426" width="13.552" height="16.263" fill="#70193d"/>
    </clipPath>
  </defs>
  <g id="Group_38206" data-name="Group 38206" transform="translate(0 0)" clip-path="url(#clip-path)">
    <path id="Path_36841" data-name="Path 36841" d="M12.2,0H1.355A1.355,1.355,0,0,0,0,1.355V14.908a1.355,1.355,0,0,0,1.355,1.355H12.2a1.355,1.355,0,0,0,1.355-1.355V1.355A1.355,1.355,0,0,0,12.2,0m.452,14.908a.452.452,0,0,1-.452.452H1.355A.451.451,0,0,1,.9,14.908V1.355A.451.451,0,0,1,1.355.9H12.2a.452.452,0,0,1,.452.452Z" transform="translate(0 0)" fill="#70193d"/>
    <path id="Path_36842" data-name="Path 36842" d="M2.646,3.1H5.809a.452.452,0,0,0,0-.9H2.646a.452.452,0,1,0,0,.9" transform="translate(0.516 0.516)" fill="#70193d"/>
    <path id="Path_36843" data-name="Path 36843" d="M9.873,5.119H2.645a.452.452,0,0,0,0,.9H9.873a.452.452,0,1,0,0-.9" transform="translate(0.516 1.205)" fill="#70193d"/>
    <path id="Path_36844" data-name="Path 36844" d="M9.873,7.313H2.645a.452.452,0,0,0,0,.9H9.873a.452.452,0,1,0,0-.9" transform="translate(0.516 1.721)" fill="#70193d"/>
    <path id="Path_36845" data-name="Path 36845" d="M8.067,9.507H2.646a.452.452,0,1,0,0,.9H8.067a.452.452,0,1,0,0-.9" transform="translate(0.516 2.238)" fill="#70193d"/>
  </g>
</svg>
