<svg id="Group_38195" data-name="Group 38195" xmlns="http://www.w3.org/2000/svg" xmlns:xlink="http://www.w3.org/1999/xlink" width="16.488" height="18.905" viewBox="0 0 16.488 18.905">
  <defs>
    <clipPath id="clip-path">
      <rect id="Rectangle_17420" data-name="Rectangle 17420" width="16.488" height="18.905" fill="#70193d"/>
    </clipPath>
  </defs>
  <g id="Group_38194" data-name="Group 38194" transform="translate(0 0)" clip-path="url(#clip-path)">
    <path id="Path_36830" data-name="Path 36830" d="M15.867,11.964c-.928-.888-1.642-1.822-1.642-5.028a5.82,5.82,0,0,0-5.09-5.673V.94q0-.046,0-.093A.894.894,0,1,0,7.351.94v.324A5.821,5.821,0,0,0,2.262,6.948c0,3.2-.714,4.131-1.641,5.016a1.961,1.961,0,0,0-.477,2.169A2,2,0,0,0,2.011,15.4H14.463a2.041,2.041,0,0,0,1.882-1.265,1.959,1.959,0,0,0-.477-2.168M14.642,13.55a.215.215,0,0,1-.158.062h-.019l-12.458,0a.218.218,0,0,1-.151-.052.213.213,0,0,1-.007-.3c1.392-1.326,2.2-2.783,2.2-6.307a4.2,4.2,0,0,1,8.395-.012c0,3.534.805,4.993,2.2,6.32l0,0a.205.205,0,0,1,0,.292" transform="translate(0 -0.001)" fill="#70193d"/>
    <path id="Path_36831" data-name="Path 36831" d="M7.968,13.18a.515.515,0,0,1,0,.062.8.8,0,1,1-1.6-.062v-.329H4.594l-.015.313a2.592,2.592,0,0,0,2.455,2.718h.132a2.592,2.592,0,0,0,2.586-2.457v-.577H7.968Z" transform="translate(1.077 3.024)" fill="#70193d"/>
  </g>
</svg>
