<svg id="Group_38205" data-name="Group 38205" xmlns="http://www.w3.org/2000/svg" xmlns:xlink="http://www.w3.org/1999/xlink" width="18.115" height="18.531" viewBox="0 0 18.115 18.531">
  <defs>
    <clipPath id="clip-path">
      <rect id="Rectangle_17425" data-name="Rectangle 17425" width="18.115" height="18.531" fill="#70193d"/>
    </clipPath>
  </defs>
  <g id="Group_38204" data-name="Group 38204" clip-path="url(#clip-path)">
    <path id="Path_36839" data-name="Path 36839" d="M16.8,8.078a.648.648,0,0,0-.523-.44l-5.032-.73L9,2.35a.648.648,0,0,0-1.161,0L5.585,6.91.554,7.642A.647.647,0,0,0,.2,8.747l3.642,3.548-.859,5.012a.648.648,0,0,0,.94.682l4.5-2.367,4.5,2.365a.647.647,0,0,0,.939-.683L13,12.292l3.639-3.549a.648.648,0,0,0,.164-.665M11.85,11.6a.65.65,0,0,0-.187.573l.7,4.053L8.72,14.317a.646.646,0,0,0-.6,0L4.477,16.232l.694-4.055a.651.651,0,0,0-.187-.573L2.038,8.734l4.071-.592A.647.647,0,0,0,6.6,7.788L8.416,4.1l1.821,3.688a.647.647,0,0,0,.488.355l4.069.591Z" transform="translate(0 0.468)" fill="#70193d"/>
    <path id="Path_36840" data-name="Path 36840" d="M15.72,2.037a.405.405,0,0,0-.326-.274L13.93,1.55,13.275.225a.4.4,0,0,0-.724,0L11.9,1.55l-1.464.214a.4.4,0,0,0-.224.688l1.06,1.033-.25,1.458a.4.4,0,0,0,.586.425l1.308-.689,1.31.688a.4.4,0,0,0,.586-.425l-.251-1.458,1.059-1.033a.405.405,0,0,0,.1-.414M13.843,3.054a.4.4,0,0,0-.116.357l.148.861L13.1,3.866a.4.4,0,0,0-.376,0l-.773.406.148-.86a.406.406,0,0,0-.116-.358l-.625-.609.864-.126a.4.4,0,0,0,.3-.22l.385-.783L13.3,2.1a.4.4,0,0,0,.305.221l.864.126Z" transform="translate(2.375)" fill="#70193d"/>
  </g>
</svg>
