<svg id="Group_38209" data-name="Group 38209" xmlns="http://www.w3.org/2000/svg" xmlns:xlink="http://www.w3.org/1999/xlink" width="19" height="18" viewBox="0 0 19 18">
  <defs>
    <clipPath id="clip-path">
      <rect id="Rectangle_17427" data-name="Rectangle 17427" width="19" height="18" fill="#70193d"/>
    </clipPath>
  </defs>
  <g id="Group_38208" data-name="Group 38208" clip-path="url(#clip-path)">
    <path id="Path_36846" data-name="Path 36846" d="M16.785,1.746a5.97,5.97,0,0,0-9.9,6.063L.159,14.532A.545.545,0,0,0,0,14.917v3.071a.542.542,0,0,0,.544.541H3.615A.549.549,0,0,0,4,18.373l.768-.77a.538.538,0,0,0,.154-.447l-.1-.824,1.143-.106a.543.543,0,0,0,.489-.492l.109-1.142.824.1A.547.547,0,0,0,8,14.148V13.138H8.99a.544.544,0,0,0,.382-.157l1.349-1.334a5.97,5.97,0,0,0,6.065-9.9m-.768,7.679a4.884,4.884,0,0,1-5.237,1.091.543.543,0,0,0-.579.12L8.768,12.051H7.454a.541.541,0,0,0-.542.542v.945l-.771-.09a.545.545,0,0,0-.6.488l-.119,1.25L4.172,15.3a.545.545,0,0,0-.488.6l.13,1.117-.424.423h-2.3v-2.3L7.894,8.334a.547.547,0,0,0,.122-.583,4.884,4.884,0,1,1,8,1.674" transform="translate(0.286 -0.034)" fill="#70193d"/>
    <path id="Path_36847" data-name="Path 36847" d="M12.874,2.748a1.629,1.629,0,1,0,0,2.3,1.631,1.631,0,0,0,0-2.3m-.768,1.536a.544.544,0,1,1,0-.768.547.547,0,0,1,0,.768" transform="translate(2.662 0.501)" fill="#70193d"/>
  </g>
</svg>
