<svg id="Group_38197" data-name="Group 38197" xmlns="http://www.w3.org/2000/svg" xmlns:xlink="http://www.w3.org/1999/xlink" width="17.386" height="18.383" viewBox="0 0 17.386 18.383">
  <defs>
    <clipPath id="clip-path">
      <rect id="Rectangle_17421" data-name="Rectangle 17421" width="17.386" height="18.383" fill="#70193d"/>
    </clipPath>
  </defs>
  <g id="Group_38196" data-name="Group 38196" transform="translate(0 0)" clip-path="url(#clip-path)">
    <path id="Path_36832" data-name="Path 36832" d="M16.273,7.022l-1.2-.161a7.652,7.652,0,0,0-.313-.8L15.5,5.052a1.381,1.381,0,0,0-.1-1.773L14.284,2.11A1.2,1.2,0,0,0,12.6,1.993l-.952.782a6.877,6.877,0,0,0-.757-.33l-.152-1.263A1.3,1.3,0,0,0,9.485,0H7.9A1.3,1.3,0,0,0,6.643,1.179L6.491,2.446a6.877,6.877,0,0,0-.757.33L4.783,2A1.205,1.205,0,0,0,3.106,2.1L1.994,3.278a1.39,1.39,0,0,0-.109,1.779l.74,1.009a7.5,7.5,0,0,0-.314.8l-1.195.161A1.316,1.316,0,0,0,0,8.353v1.681a1.324,1.324,0,0,0,1.113,1.326l1.2.162a7.181,7.181,0,0,0,.314.8l-.739,1.007a1.381,1.381,0,0,0,.1,1.773L3.1,16.275a1.213,1.213,0,0,0,1.686.114l.952-.782a6.586,6.586,0,0,0,.755.33L6.644,17.2A1.3,1.3,0,0,0,7.9,18.383H9.485l.065,0,0,0a1.3,1.3,0,0,0,1.19-1.176l.151-1.265a6.68,6.68,0,0,0,.756-.331l.951.781a1.206,1.206,0,0,0,1.678-.107L15.391,15.1a1.383,1.383,0,0,0,.11-1.779l-.74-1.006a7.872,7.872,0,0,0,.313-.8l1.2-.161a1.317,1.317,0,0,0,1.117-1.328V8.349a1.322,1.322,0,0,0-1.113-1.327m-2.159,3.784a6.222,6.222,0,0,1-.505,1.282.626.626,0,0,0,.047.656l.962,1.31a.155.155,0,0,1-.011.2l-1.121,1.184a.132.132,0,0,1-.187.007l-1.238-1.017a.538.538,0,0,0-.619-.049,5.547,5.547,0,0,1-1.213.535.589.589,0,0,0-.4.5l-.2,1.65a.149.149,0,0,1-.14.136H7.909a.152.152,0,0,1-.145-.138l-.2-1.644a.585.585,0,0,0-.4-.5,5.6,5.6,0,0,1-1.216-.536.549.549,0,0,0-.273-.074.559.559,0,0,0-.346.124l-1.24,1.018a.134.134,0,0,1-.188-.012L2.781,14.253a.153.153,0,0,1-.007-.2l.969-1.3A.618.618,0,0,0,3.79,12.1a6.192,6.192,0,0,1-.505-1.284.575.575,0,0,0-.471-.425l-1.559-.21a.153.153,0,0,1-.13-.149V8.356A.152.152,0,0,1,1.256,8.2L2.809,8a.576.576,0,0,0,.469-.426,6.249,6.249,0,0,1,.505-1.282.623.623,0,0,0-.048-.656l-.962-1.31a.155.155,0,0,1,.012-.2L3.906,2.94a.132.132,0,0,1,.184-.007L5.322,3.959a.535.535,0,0,0,.621.051,5.521,5.521,0,0,1,1.213-.535.587.587,0,0,0,.4-.5l.2-1.649A.15.15,0,0,1,7.9,1.191H9.48a.155.155,0,0,1,.146.138L9.82,2.97a.585.585,0,0,0,.4.5A5.475,5.475,0,0,1,11.436,4a.536.536,0,0,0,.621-.051L13.3,2.933a.133.133,0,0,1,.187.014L14.6,4.131a.153.153,0,0,1,.006.2l-.959,1.3a.623.623,0,0,0-.048.656,6.255,6.255,0,0,1,.507,1.282.578.578,0,0,0,.469.426l1.559.21a.15.15,0,0,1,.13.148v1.662a.154.154,0,0,1-.131.154l-1.555.21a.574.574,0,0,0-.469.427" transform="translate(0 0)" fill="#70193d"/>
    <path id="Path_36833" data-name="Path 36833" d="M7.75,4.235A3.861,3.861,0,0,0,4.006,8.194,3.861,3.861,0,0,0,7.75,12.154a3.869,3.869,0,0,0,3.744-3.959A3.861,3.861,0,0,0,7.75,4.235m0,6.73A2.7,2.7,0,0,1,5.13,8.2a2.7,2.7,0,0,1,2.62-2.77,2.7,2.7,0,0,1,2.62,2.77,2.7,2.7,0,0,1-2.62,2.769" transform="translate(0.943 0.997)" fill="#70193d"/>
  </g>
</svg>
