<svg xmlns="http://www.w3.org/2000/svg" width="20.359" height="20.361" viewBox="0 0 20.359 20.361">
    <g id="contract_2_" data-name="contract (2)" transform="translate(-0.018)">
        <g id="Group_42179" data-name="Group 42179" transform="translate(0.018)">
            <g id="Group_42178" data-name="Group 42178">
                <path id="Path_43483" data-name="Path 43483"
                    d="M19.853,6.408a1.792,1.792,0,0,0-2.531,0L15.527,8.2V3.477A1.778,1.778,0,0,0,15,2.211L13.316.524A1.778,1.778,0,0,0,12.05,0H1.808A1.792,1.792,0,0,0,.018,1.79V18.571a1.792,1.792,0,0,0,1.79,1.79h11.93a1.792,1.792,0,0,0,1.79-1.79v-5.3l4.326-4.329A1.788,1.788,0,0,0,19.853,6.408Zm-7.9-5.215a.651.651,0,0,1,.524.175l1.687,1.687a.651.651,0,0,1,.175.524H11.948Zm2.386,17.378a.6.6,0,0,1-.6.6H1.808a.6.6,0,0,1-.6-.6V1.79a.6.6,0,0,1,.6-.6h8.948V4.176a.6.6,0,0,0,.6.6h2.983V9.4l-1.76,1.761L11.731,12a.6.6,0,0,0-.144.233l-.844,2.531a.6.6,0,0,0,.755.755l2.531-.844a.6.6,0,0,0,.233-.144l.072-.072v4.11ZM13,12.424l.844.844-.322.322-1.265.422.422-1.265Zm1.687,0-.844-.844,2.867-2.87.844.844Zm4.326-4.329-.615.615-.844-.844.615-.616a.6.6,0,1,1,.843.844Z"
                    transform="translate(-0.018 0)" fill="#70193d" />
            </g>
        </g>
        <g id="Group_42181" data-name="Group 42181" transform="translate(2.404 5.965)">
            <g id="Group_42180" data-name="Group 42180">
                <path id="Path_43484" data-name="Path 43484" d="M68.966,150H60.615a.6.6,0,0,0,0,1.193h8.351a.6.6,0,0,0,0-1.193Z" transform="translate(-60.018 -150)" fill="#70193d" />
            </g>
        </g>
        <g id="Group_42183" data-name="Group 42183" transform="translate(2.404 8.351)">
            <g id="Group_42182" data-name="Group 42182">
                <path id="Path_43485" data-name="Path 43485" d="M66.58,210H60.615a.6.6,0,1,0,0,1.193H66.58a.6.6,0,1,0,0-1.193Z" transform="translate(-60.018 -210)" fill="#70193d" />
            </g>
        </g>
        <g id="Group_42185" data-name="Group 42185" transform="translate(2.404 10.737)">
            <g id="Group_42184" data-name="Group 42184">
                <path id="Path_43486" data-name="Path 43486" d="M66.58,270H60.615a.6.6,0,0,0,0,1.193H66.58a.6.6,0,0,0,0-1.193Z" transform="translate(-60.018 -270)" fill="#70193d" />
            </g>
        </g>
        <g id="Group_42187" data-name="Group 42187" transform="translate(2.404 13.123)">
            <g id="Group_42186" data-name="Group 42186">
                <path id="Path_43487" data-name="Path 43487" d="M66.58,330H60.615a.6.6,0,0,0,0,1.193H66.58a.6.6,0,0,0,0-1.193Z" transform="translate(-60.018 -330)" fill="#70193d" />
            </g>
        </g>
        <g id="Group_42189" data-name="Group 42189" transform="translate(7.176 16.782)">
            <g id="Group_42188" data-name="Group 42188">
                <path id="Path_43488" data-name="Path 43488" d="M184.194,422h-3.579a.6.6,0,1,0,0,1.193h3.579a.6.6,0,0,0,0-1.193Z" transform="translate(-180.018 -422)" fill="#70193d" />
            </g>
        </g>
    </g>
</svg>
