<svg id="User-Icon-Edit" xmlns="http://www.w3.org/2000/svg" width="38" height="38" viewBox="0 0 38 38">
  <path id="Path_37617" data-name="Path 37617" d="M19,0A19,19,0,1,1,0,19,19,19,0,0,1,19,0Z" fill="#70193d"/>
  <path id="Icon-edit" d="M15.853,1.808,14.647.6a2.057,2.057,0,0,0-2.909,0L.412,11.928,0,15.6a.772.772,0,0,0,.765.857.788.788,0,0,0,.086,0l3.669-.405L15.853,4.717a2.057,2.057,0,0,0,0-2.909ZM4.052,15.064l-2.99.331L1.395,12.4,9.876,3.919l2.66,2.66ZM15.126,3.99,13.264,5.852,10.6,3.192,12.465,1.33a1.029,1.029,0,0,1,1.455,0l1.206,1.206a1.03,1.03,0,0,1,0,1.455Z" transform="translate(11.539 10.404)" fill="#fff" stroke="#fff" stroke-width="0.5"/>
</svg>
