<svg xmlns="http://www.w3.org/2000/svg" width="15.055" height="15.034" viewBox="0 0 15.055 15.034">
    <path id="edit-text_1_" data-name="edit-text (1)" d="M13.076,3.05l.769-.769a2.459,2.459,0,0,1,3.4,0l.62.62a2.383,2.383,0,0,1,0,3.389l-.769.769L13.076,3.041Zm-.926.926L4.192,11.934a1.487,1.487,0,0,0-.437.943l-.236,2.56a1.123,1.123,0,0,0,.314.874,1.078,1.078,0,0,0,.769.323h.1l2.56-.236a1.543,1.543,0,0,0,.943-.446L16.16,7.995,12.142,3.976Z" transform="translate(-3.516 -1.6)" fill="#FFFFFF" />
</svg>
