<svg xmlns="http://www.w3.org/2000/svg" xmlns:xlink="http://www.w3.org/1999/xlink" width="249.436" height="243.684" viewBox="0 0 249.436 243.684">
    <defs>
        <clipPath id="clip-path">
            <rect id="Rectangle_20473" data-name="Rectangle 20473" width="249.436" height="243.684" transform="translate(0 0)" fill="none" />
        </clipPath>
        <clipPath id="clip-path-2">
            <rect id="Rectangle_20474" data-name="Rectangle 20474" width="61.548" height="67.196" fill="#acb7cb" />
        </clipPath>
    </defs>
    <g id="Group_45500" data-name="Group 45500" transform="translate(0 0.004)">
        <g id="Group_45499" data-name="Group 45499" transform="translate(0 -0.004)" clip-path="url(#clip-path)">
            <path id="Path_44790" data-name="Path 44790" d="M545.01,83.032a.583.583,0,0,1-.583-.583V.579a.583.583,0,0,1,1.165,0V82.45a.583.583,0,0,1-.583.583" transform="translate(-438.685 0.004)" fill="#89163a" />
            <rect id="Rectangle_20463" data-name="Rectangle 20463" width="26.312" height="18.086" transform="translate(110.31 3.411)" fill="#89163a" />
            <path id="Path_44791" data-name="Path 44791" d="M237.885,1169.211c0,4.149-53.253,7.512-118.943,7.512S0,1173.359,0,1169.211s53.253-7.512,118.943-7.512,118.943,3.363,118.943,7.512" transform="translate(0 -936.067)" fill="#e3e5eb" />
            <path id="Path_44849" data-name="Path 44849" d="M0,0H185.59V105.937H0Z" transform="translate(24.943 108.497)" fill="#d8daed" />
            <rect id="Rectangle_20465" data-name="Rectangle 20465" width="21.783" height="86.083" transform="translate(43.672 116.773)" fill="#89163a" />
            <path id="Path_44792" data-name="Path 44792" d="M205.267,1032.5H157.561v-6.317a8.5,8.5,0,0,1,8.5-8.5h30.714a8.5,8.5,0,0,1,8.5,8.5Z" transform="translate(-126.959 -820.022)" fill="#8690a2" />
            <rect id="Rectangle_20467" data-name="Rectangle 20467" width="21.783" height="86.083" transform="translate(165.006 116.773)" fill="#89163a" />
            <path id="Path_44794" data-name="Path 44794" d="M829.971,1032.5H782.265v-6.317a8.5,8.5,0,0,1,8.5-8.5h30.714a8.5,8.5,0,0,1,8.5,8.5Z" transform="translate(-630.329 -820.022)" fill="#8690a2" />
            <path id="Path_44848" data-name="Path 44848" d="M0,0H185.59V23.687H0Z" transform="translate(24.943 207.572)" fill="#d8daed" />
            <path id="Path_44795" data-name="Path 44795" d="M157.561,550h47.706v6.317a8.5,8.5,0,0,1-8.5,8.5H166.057a8.5,8.5,0,0,1-8.5-8.5Z" transform="translate(-126.959 -443.173)" fill="#89163a" />
            <rect id="Rectangle_20469" data-name="Rectangle 20469" width="21.783" height="11.181" transform="translate(43.672 116.773)" fill="#89163a" />
            <rect id="Rectangle_20471" data-name="Rectangle 20471" width="21.783" height="11.181" transform="translate(165.006 116.773)" fill="#89163a" />
            <path id="Path_44797" data-name="Path 44797" d="M782.265,550h47.706v6.317a8.5,8.5,0,0,1-8.5,8.5H790.76a8.5,8.5,0,0,1-8.5-8.5Z" transform="translate(-630.329 -443.173)" fill="#89163a" />
            <path id="Path_44798" data-name="Path 44798" d="M282.009,513.453H77.932V507.42a8.492,8.492,0,0,1,8.492-8.492H273.518a8.492,8.492,0,0,1,8.492,8.492Z" transform="translate(-62.796 -402.023)" fill="#7286a8" />
            <path id="Path_44799" data-name="Path 44799" d="M314.015,248.757H128.425l87.6-58.7a9.239,9.239,0,0,1,10.385,0Z" transform="translate(-103.482 -151.851)" fill="#d8daed" />
            <path id="Path_44800" data-name="Path 44800" d="M414.987,298.2H293.534l57.329-38.417a6.046,6.046,0,0,1,6.8,0Z" transform="translate(-236.522 -208.484)" fill="#89163a" />
            <rect id="Rectangle_20472" data-name="Rectangle 20472" width="201.06" height="16.335" transform="translate(16.961 214.924)" fill="#89163a" />
            <path id="Path_44822" data-name="Path 44822" d="M1088.708,1238.684c.091.948-9.916,1.716-22.352,1.716s-22.59-.768-22.682-1.716,9.917-1.716,22.352-1.716,22.591.768,22.682,1.716" transform="translate(-840.966 -996.717)" fill="#e3e5eb" fill-rule="evenodd" />
            <path id="Path_44823" data-name="Path 44823" d="M1096.651,1192.206l4.972.771-.886,6.146a.116.116,0,0,1-.116.108q-1.5.1-3,.166a1.421,1.421,0,0,1-.859-.143Z" transform="translate(-883.653 -960.648)" fill="#c95836" />
            <path id="Path_44824" data-name="Path 44824" d="M1085.022,1227.009c.051.492-2.178.517-5.235.517-.98,0-3.679.031-3.716-.333-.141-1.918,2.367.156,4.088-3.461a4.2,4.2,0,0,0,4.129-.832,11.886,11.886,0,0,0,.323,1.793c.24.939.628,1.958.412,2.316" transform="translate(-867.066 -985.381)" fill="#572a22" />
            <path id="Path_44825" data-name="Path 44825" d="M1101.525,895.332c-1.48-1.61-7.061-2.363-7.422-.169-.75,4.552-1.333,33.106-2.559,52.216-3.607.2-5.6-1.171-11.252-1.386,1.323-20.617-1.206-40.757.238-63.278,5.7.552,9.515.088,15.215.639a13.669,13.669,0,0,1,3.588,1.555,2.914,2.914,0,0,1,.729,2.05c.187,2.916,2.851,5.879,1.464,8.373" transform="translate(-870.291 -711.269)" fill="#b2c0f0" />
            <path id="Path_44826" data-name="Path 44826" d="M1119.466,937.743c-.75,4.552-1.333,33.106-2.559,52.216-2.675.15.1,1.172,3.705.969,1.226-19.11,1.809-47.664,2.559-52.216.361-2.194-3.442-2.567-3.705-.969" transform="translate(-899.116 -754.818)" fill="#94a2d4" />
            <path id="Path_44827" data-name="Path 44827" d="M1199.628,1192.644c-.018.021-.036.041-.252.26.053,2.412-.435,3.327-.382,5.739-1.034.077-1.528,1.64-2.566,1.7-.293.016.031-1.325-.22-1.513l-2.1-6.489Z" transform="translate(-962.179 -960.755)" fill="#c95836" />
            <path id="Path_44828" data-name="Path 44828" d="M1145.09,878.186c2.074,21.138,4.15,42.286,6.984,63.763,2.378-1.057,3.933,1.438,7.715.077a3.872,3.872,0,0,1,2.68.228c.362-.37.064-4.2.073-4.739.156-9.132-.97-14.137-2.181-24.14-.555-14.349-.133-24.138-1.544-35.866-5.1.032-8.543.773-13.63.934l-.223.012c-.069.055-.138.109.126-.268" transform="translate(-922.532 -707.074)" fill="#b2c0f0" />
            <line id="Line_158" data-name="Line 158" x1="3.786" transform="translate(218.267 181.931)" fill="none" stroke="#a39287" stroke-linecap="round" stroke-linejoin="round" stroke-width="1.578" />
            <path id="Path_44829" data-name="Path 44829" d="M948.412,758.883l-2.714.067a2.371,2.371,0,0,1-1.517-.51l-1.768-1.387a1.084,1.084,0,0,1,.061-1.791l3.425.108a3.6,3.6,0,0,1,2.189.909l1.085.934Z" transform="translate(-759.014 -608.569)" fill="#c95836" />
            <path id="Path_44830" data-name="Path 44830" d="M963.07,765s6.342,7.706,10.549,12.272c4.379,4.752,7.965-3,4.578-5.174-1.394-.9-12.289-7.947-12.289-7.947Z" transform="translate(-776.017 -615.733)" fill="#c95836" fill-rule="evenodd" />
            <path id="Path_44831" data-name="Path 44831" d="M1125.375,667.325a2.769,2.769,0,0,1,.632-4.064c2.4-1.932,2.6,3.1,2.518,3.156s-3.15.909-3.15.909" transform="translate(-906.292 -534.082)" fill="#572a22" fill-rule="evenodd" />
            <path id="Path_44832" data-name="Path 44832" d="M1147.058,677.087s-.407,2.544-2.362,2.435-1.768-5.681-1.768-5.681Z" transform="translate(-920.938 -542.963)" fill="#572a22" fill-rule="evenodd" />
            <path id="Path_44833" data-name="Path 44833" d="M1132.421,686.684s.081,2.8.149,5.122a1.764,1.764,0,0,0,1.03,1.5,2.157,2.157,0,0,0,1.954-.016l.558-.3a2.042,2.042,0,0,0,1.119-2.094c-.319-2.162-.9-6.1-.9-6.1Z" transform="translate(-912.476 -551.786)" fill="#c95836" fill-rule="evenodd" />
            <path id="Path_44834" data-name="Path 44834" d="M1131.733,703.7l.232,1.586,1.734-1.339Z" transform="translate(-911.922 -567.024)" fill="#633c1d" fill-rule="evenodd" />
            <path id="Path_44835" data-name="Path 44835" d="M1131.631,669.392a1.563,1.563,0,0,0-1.124-1.824l-2.775-.748a1.5,1.5,0,0,0-1.764,1.045,15.607,15.607,0,0,0-.668,4.294,1.9,1.9,0,0,0,1.238,1.918c.851.229,3.582.111,4.165-1.335a20.65,20.65,0,0,0,.929-3.35" transform="translate(-906.738 -537.266)" fill="#c95836" fill-rule="evenodd" />
            <path id="Path_44836" data-name="Path 44836" d="M1137.142,666.86s.621-3.078-.535-4.384c-1.553-1.756-3.719-2.859-6.257-1.094,0,0-1.386.664,2.893,1.684.543.13-.4,2.645.285,2.944a11.587,11.587,0,0,0,3.613.85" transform="translate(-910.635 -532.203)" fill="#572a22" fill-rule="evenodd" />
            <path id="Path_44837" data-name="Path 44837" d="M1150.888,690.494a1.09,1.09,0,0,1-1.5.417,1.151,1.151,0,0,1-.2-1.581,1.089,1.089,0,0,1,1.5-.417,1.151,1.151,0,0,1,.2,1.581" transform="translate(-925.81 -554.981)" fill="#c95836" fill-rule="evenodd" />
            <path id="Path_44838" data-name="Path 44838" d="M1074.073,716.126l6.834-1.168,5.908-.543,5.659,1.57c2.563,1.181,4.746,1.442,4.85,4.29l.922,11.762c2.112,6.39,2.207,11.149,2.028,17.782-10.57,4.186-26.641,3.595-30.125-1.174.246-13.275.021-18.143,3.924-32.52" transform="translate(-862.299 -575.657)" fill="#607ad6" fill-rule="evenodd" />
            <path id="Path_44839" data-name="Path 44839" d="M1123.906,712.522s-1.928,5.856,2.085,6.014,5.759-5.924,5.759-5.924l-3.011-1.221Z" transform="translate(-905.242 -573.22)" fill="#c95836" />
            <path id="Path_44840" data-name="Path 44840" d="M997.539,723.218s-2.507.353-8.639,9.154l-4.272,3.619-7.818-4.523-1.825,4.022,8.563,9.808s3.244,2.13,5.022.172,7.609-8.484,7.609-8.484,3.506-12.677,1.36-13.768" transform="translate(-785.618 -582.75)" fill="#607ad6" />
            <path id="Path_44841" data-name="Path 44841" d="M1072.889,782.262a52.573,52.573,0,0,0,1.759-5.522" transform="translate(-864.507 -625.877)" fill="none" stroke="#364c8a" stroke-linecap="round" stroke-linejoin="round" stroke-width="4.195" />
            <path id="Path_44842" data-name="Path 44842" d="M1189.428,734.2s-5.4,3.854-3.9,7.741c0,0,5.992,15.744,7.412,18.066,1.9,3.109,3-3.486,3-3.486l7.185-5.09-5.444,1.641-.248-8.676Z" transform="translate(-955.058 -591.6)" fill="#607ad6" />
            <line id="Line_159" data-name="Line 159" x1="1.88" y1="7.356" transform="translate(231.991 150.947)" fill="none" stroke="#364c8a" stroke-linecap="round" stroke-linejoin="round" stroke-width="4.195" />
            <path id="Path_44843" data-name="Path 44843" d="M1201.705,1222.683a21.236,21.236,0,0,0-.6,4.1,1.056,1.056,0,0,0,.412.763,1.254,1.254,0,0,0,.87.3l1.784-.14a.993.993,0,0,0,.67-.3l.331-.366c.552-.61.3-1.255-.018-2.164a19.273,19.273,0,0,1-.566-2.014,2.665,2.665,0,0,0-2.886-.179" transform="translate(-967.822 -984.934)" fill="#3d2213" fill-rule="evenodd" />
            <path id="Path_44844" data-name="Path 44844" d="M1197.036,795.265l-11.181.485a.672.672,0,0,1-.7-.961l5.885-17.323a1.662,1.662,0,0,1,1.384-1.051l11.181-.485a.672.672,0,0,1,.7.961l-5.885,17.323a1.663,1.663,0,0,1-1.384,1.051" transform="translate(-954.923 -625.223)" fill="#333e69" />
            <path id="Path_44845" data-name="Path 44845" d="M1260.247,816.987l1.736-1.532a1.981,1.981,0,0,0,.643-1.207l.274-1.912a.963.963,0,0,0-1.11-1.109l-2.075,2.057a3.007,3.007,0,0,0-.823,1.851l-.048.5a1,1,0,0,0,.605,1.018Z" transform="translate(-1014.339 -653.65)" fill="#c95836" />
            <path id="Path_44846" data-name="Path 44846" d="M169.85,1222.3c0,1.9-17.109,3.435-38.215,3.435s-38.214-1.538-38.214-3.435,17.109-3.435,38.214-3.435,38.215,1.538,38.215,3.435" transform="translate(-75.276 -982.133)" fill="#e3e5eb" />
            <path id="Path_44847" data-name="Path 44847" d="M371.036,283.92h-77.5l36.583-24.515a3.858,3.858,0,0,1,4.337,0Z" transform="translate(-214.547 -200.884)" fill="rgba(255,255,255,0.4)" />
            <g id="Group_45501" data-name="Group 45501" transform="translate(85.889 130.116)">
                <g id="Group_45502" data-name="Group 45502" transform="translate(0 0)" opacity="0.7">
                    <g id="Group_45501-2" data-name="Group 45501" transform="translate(0 0)" clip-path="url(#clip-path-2)">
                        <path id="Path_44849-2" data-name="Path 44849" d="M60.334,3.435H1.214A1.218,1.218,0,0,1,0,2.22V1.214A1.218,1.218,0,0,1,1.214,0H60.334a1.218,1.218,0,0,1,1.214,1.214V2.221a1.218,1.218,0,0,1-1.214,1.214" transform="translate(0 0)" fill="#acb7cb" />
                        <path id="Path_44850" data-name="Path 44850" d="M60.334,68.532H1.214A1.218,1.218,0,0,1,0,67.317V66.311A1.218,1.218,0,0,1,1.214,65.1H60.334a1.218,1.218,0,0,1,1.214,1.214v1.006a1.218,1.218,0,0,1-1.214,1.214" transform="translate(0 -49.472)" fill="#acb7cb" />
                        <path id="Path_44851" data-name="Path 44851" d="M60.334,133.629H1.214A1.218,1.218,0,0,1,0,132.414v-1.006a1.218,1.218,0,0,1,1.214-1.214H60.334a1.218,1.218,0,0,1,1.214,1.214v1.006a1.218,1.218,0,0,1-1.214,1.214" transform="translate(0 -98.945)" fill="#acb7cb" />
                        <path id="Path_44852" data-name="Path 44852" d="M60.334,198.727H1.214A1.218,1.218,0,0,1,0,197.512v-1.006a1.218,1.218,0,0,1,1.214-1.214H60.334a1.218,1.218,0,0,1,1.214,1.214v1.006a1.218,1.218,0,0,1-1.214,1.214" transform="translate(0 -148.418)" fill="#acb7cb" />
                        <path id="Path_44853" data-name="Path 44853" d="M181.863,269.085H161.126a1.218,1.218,0,0,1-1.214-1.214v-1.006a1.218,1.218,0,0,1,1.214-1.214h20.737a1.218,1.218,0,0,1,1.214,1.214v1.006a1.218,1.218,0,0,1-1.214,1.214" transform="translate(-121.531 -201.889)" fill="#acb7cb" />
                    </g>
                </g>
            </g>
            <g id="access-control_1_" data-name="access-control (1)" transform="translate(85.195 124.146)">
                <path id="Path_44854" data-name="Path 44854" d="M59.309,225.758H32.2a2.2,2.2,0,0,1-2.2-2.2V195H69.549v9.772" transform="translate(-30 -167.534)" fill="none" stroke="#89163a" stroke-width="3" fill-rule="evenodd" />
                <path id="Path_44855" data-name="Path 44855" d="M49.394,34.964V25.077a13.183,13.183,0,1,1,26.366,0v4.394h4.394V25.077a17.553,17.553,0,0,0-29.163-13.19m-1.6,1.6A17.494,17.494,0,0,0,45,25.077v9.887" transform="translate(-42.803 -7.5)" fill="none" stroke="#89163a" stroke-width="3" fill-rule="evenodd" />
                <path id="Path_44856" data-name="Path 44856" d="M120.377,264.429l3.107,3.107,4.661-4.661,3.107,3.107-7.768,7.768-6.214-6.215Z" transform="translate(-104.487 -225.468)" fill="none" stroke="#89163a" stroke-width="3" fill-rule="evenodd" />
                <path id="Path_44857" data-name="Path 44857" d="M332,404.015v-3.087m6.591,0v3.087" transform="translate(-287.764 -343.3)" fill="none" stroke="#89163a" stroke-width="3" fill-rule="evenodd" />
                <path id="Path_44858" data-name="Path 44858" d="M316.091,294.5a6.611,6.611,0,0,1,6.591,6.591v3.3a6.591,6.591,0,1,1-13.183,0v-3.3A6.611,6.611,0,0,1,316.091,294.5Z" transform="translate(-268.56 -252.46)" fill="none" stroke="#89163a" stroke-width="3" fill-rule="evenodd" />
                <path id="Path_44859" data-name="Path 44859" d="M338.591,422A3.3,3.3,0,1,1,332,422" transform="translate(-287.764 -361.285)" fill="none" stroke="#89163a" stroke-width="3" fill-rule="evenodd" />
                <path id="Path_44860" data-name="Path 44860" d="M322.683,342.795a3.305,3.305,0,0,0-3.3-3.3H312.8a3.305,3.305,0,0,0-3.3,3.3" transform="translate(-268.56 -290.869)" fill="none" stroke="#89163a" stroke-width="3" fill-rule="evenodd" />
                <path id="Path_44861" data-name="Path 44861" d="M251.036,286.069a18.675,18.675,0,1,1,2.131-.782" transform="translate(-198.144 -214.053)" fill="none" stroke="#89163a" stroke-width="3" fill-rule="evenodd" />
                <path id="Path_44862" data-name="Path 44862" d="M280.789,422l-4.394,1.1c-2.344.586-4.394,1.978-4.394,4.394v2.156m24.169,0v-2.156c0-2.417-2.05-3.808-4.394-4.394L287.38,422" transform="translate(-236.553 -361.285)" fill="none" stroke="#89163a" stroke-width="3" fill-rule="evenodd" />
                <path id="Path_44863" data-name="Path 44863" d="M236.894,225h2.2m-6.591,0h2.2" transform="translate(-202.838 -193.139)" fill="none" stroke="#89163a" stroke-width="3" fill-rule="evenodd" />
            </g>
        </g>
    </g>
</svg>
