<svg id="Group_44652" data-name="Group 44652" xmlns="http://www.w3.org/2000/svg" xmlns:xlink="http://www.w3.org/1999/xlink" width="214.104" height="192.072" viewBox="0 0 214.104 192.072">
    <defs>
        <clipPath id="clip-path">
            <rect id="Rectangle_19806" data-name="Rectangle 19806" width="214.104" height="192.072" fill="none" />
        </clipPath>
        <clipPath id="clip-path-3">
            <rect id="Rectangle_19762" data-name="Rectangle 19762" width="30.803" height="11.138" fill="none" />
        </clipPath>
        <clipPath id="clip-path-5">
            <rect id="Rectangle_19766" data-name="Rectangle 19766" width="16.998" height="10.74" fill="none" />
        </clipPath>
        <clipPath id="clip-path-13">
            <rect id="Rectangle_19801" data-name="Rectangle 19801" width="25.413" height="73.412" fill="none" />
        </clipPath>
        <clipPath id="clip-path-14">
            <rect id="Rectangle_19800" data-name="Rectangle 19800" width="25.412" height="73.412" fill="none" />
        </clipPath>
        <clipPath id="clip-path-15">
            <rect id="Rectangle_19803" data-name="Rectangle 19803" width="48.06" height="8.319" fill="none" />
        </clipPath>
    </defs>
    <g id="Group_44686" data-name="Group 44686" clip-path="url(#clip-path)">
        <g id="Group_44658" data-name="Group 44658">
            <g id="Group_44657" data-name="Group 44657" clip-path="url(#clip-path)">
                <path id="Path_44702" data-name="Path 44702" d="M210.256,215.475c.376,3.134-42.959,5.675-96.8,5.675s-97.782-2.541-98.158-5.675,42.959-5.675,96.8-5.675,97.782,2.541,98.158,5.675" transform="translate(-2.587 -35.472)" fill="#e3e7fa" fill-rule="evenodd" />
                <rect id="Rectangle_19760" data-name="Rectangle 19760" width="30.803" height="55.413" transform="translate(97.126 120.404)" fill="#89163a" />
                <path id="Path_44703" data-name="Path 44703" d="M165.781,212.9H90.9a18.348,18.348,0,0,1,18.348-18.348h38.187A18.348,18.348,0,0,1,165.781,212.9Z" transform="translate(-15.368 -32.893)" fill="#89163a" />
                <g id="Group_44656" data-name="Group 44656" transform="translate(97.126 147.351)" opacity="0.4">
                    <g id="Group_44655" data-name="Group 44655">
                        <g id="Group_44654" data-name="Group 44654" clip-path="url(#clip-path-3)">
                            <g id="Group_44653" data-name="Group 44653" transform="translate(0 0)">
                                <g id="Group_44652-2" data-name="Group 44652" clip-path="url(#clip-path-3)">
                                    <path id="Path_44704" data-name="Path 44704" d="M116.889,177.333h30.8v11.134Z" transform="translate(-116.889 -177.333)" />
                                </g>
                            </g>
                        </g>
                    </g>
                </g>
                <path id="Path_44705" data-name="Path 44705" d="M205.75,147.35H8.355A8.355,8.355,0,0,1,0,139V8.355A8.355,8.355,0,0,1,8.355,0H205.75A8.355,8.355,0,0,1,214.1,8.355V139a8.355,8.355,0,0,1-8.355,8.355" fill="#89163a" />
                <rect id="Rectangle_19763" data-name="Rectangle 19763" width="202.372" height="131.181" transform="translate(5.3 6.589)" fill="#d8daed" />
                <path id="Path_44706" data-name="Path 44706" d="M187.89,123.906H33.054a12.828,12.828,0,0,1-12.828-12.828V39.7A12.828,12.828,0,0,1,33.054,26.869H187.89A12.828,12.828,0,0,1,200.718,39.7v71.381a12.828,12.828,0,0,1-12.828,12.828" transform="translate(-3.42 -4.543)" fill="#fff" />
                <path id="Path_44707" data-name="Path 44707" d="M155.168,39.713h-68a1.391,1.391,0,0,1-1.316-1.13.937.937,0,0,1,.72-1.11.911.911,0,0,1,.223-.02h68a1.391,1.391,0,0,1,1.316,1.13.936.936,0,0,1-.72,1.11.911.911,0,0,1-.223.02" transform="translate(-14.512 -6.332)" fill="#cccddb" fill-rule="evenodd" />
            </g>
        </g>
        <g id="Group_44660" data-name="Group 44660" transform="translate(31.215 42.169)">
            <g id="Group_44659" data-name="Group 44659" clip-path="url(#clip-path-5)">
                <rect id="Rectangle_19765" data-name="Rectangle 19765" width="16.998" height="10.74" fill="#ffe756" />
            </g>
        </g>
        <g id="Group_44662" data-name="Group 44662" transform="translate(53.66 42.169)">
            <g id="Group_44661" data-name="Group 44661" clip-path="url(#clip-path-5)">
                <rect id="Rectangle_19767" data-name="Rectangle 19767" width="16.998" height="10.74" fill="#ffe756" />
            </g>
        </g>
        <g id="Group_44664" data-name="Group 44664" transform="translate(76.107 42.169)">
            <g id="Group_44663" data-name="Group 44663" clip-path="url(#clip-path-5)">
                <rect id="Rectangle_19769" data-name="Rectangle 19769" width="16.998" height="10.74" fill="#ffe756" />
            </g>
        </g>
        <g id="Group_44666" data-name="Group 44666" transform="translate(98.553 42.169)">
            <g id="Group_44665" data-name="Group 44665" clip-path="url(#clip-path-5)">
                <rect id="Rectangle_19771" data-name="Rectangle 19771" width="16.998" height="10.74" fill="#ffe756" />
            </g>
        </g>
        <g id="Group_44668" data-name="Group 44668" transform="translate(120.999 42.169)">
            <g id="Group_44667" data-name="Group 44667" clip-path="url(#clip-path-5)">
                <rect id="Rectangle_19773" data-name="Rectangle 19773" width="16.998" height="10.74" fill="#ffe756" />
            </g>
        </g>
        <g id="Group_44670" data-name="Group 44670" transform="translate(143.445 42.169)">
            <g id="Group_44669" data-name="Group 44669" clip-path="url(#clip-path-5)">
                <rect id="Rectangle_19775" data-name="Rectangle 19775" width="16.998" height="10.74" fill="#ffe756" />
            </g>
        </g>
        <g id="Group_44672" data-name="Group 44672" transform="translate(165.892 42.169)">
            <g id="Group_44671" data-name="Group 44671" clip-path="url(#clip-path-5)">
                <rect id="Rectangle_19777" data-name="Rectangle 19777" width="16.998" height="10.74" fill="#ffe756" />
            </g>
        </g>
        <g id="Group_44679" data-name="Group 44679">
            <g id="Group_44678" data-name="Group 44678" clip-path="url(#clip-path)">
                <rect id="Rectangle_19779" data-name="Rectangle 19779" width="16.998" height="10.74" transform="translate(31.215 58.792)" fill="#e0e1eb" />
                <rect id="Rectangle_19780" data-name="Rectangle 19780" width="16.998" height="10.74" transform="translate(53.66 58.792)" fill="#e0e1eb" />
                <rect id="Rectangle_19781" data-name="Rectangle 19781" width="16.998" height="10.74" transform="translate(76.107 58.792)" fill="#e0e1eb" />
                <rect id="Rectangle_19782" data-name="Rectangle 19782" width="16.998" height="10.74" transform="translate(98.553 58.792)" fill="#e0e1eb" />
                <rect id="Rectangle_19783" data-name="Rectangle 19783" width="16.998" height="10.74" transform="translate(120.999 58.792)" fill="#e0e1eb" />
                <rect id="Rectangle_19784" data-name="Rectangle 19784" width="16.998" height="10.74" transform="translate(143.445 58.792)" fill="#e0e1eb" />
                <rect id="Rectangle_19785" data-name="Rectangle 19785" width="16.998" height="10.74" transform="translate(165.892 58.792)" fill="#e0e1eb" />
                <rect id="Rectangle_19786" data-name="Rectangle 19786" width="16.998" height="10.74" transform="translate(31.215 75.415)" fill="#e0e1eb" />
                <rect id="Rectangle_19787" data-name="Rectangle 19787" width="16.998" height="10.74" transform="translate(53.66 75.415)" fill="#e0e1eb" />
                <rect id="Rectangle_19788" data-name="Rectangle 19788" width="16.998" height="10.74" transform="translate(76.107 75.415)" fill="#e0e1eb" />
                <rect id="Rectangle_19789" data-name="Rectangle 19789" width="16.998" height="10.74" transform="translate(98.553 75.415)" fill="#e0e1eb" />
                <rect id="Rectangle_19790" data-name="Rectangle 19790" width="16.998" height="10.74" transform="translate(120.999 75.415)" fill="#e0e1eb" />
                <rect id="Rectangle_19791" data-name="Rectangle 19791" width="16.998" height="10.74" transform="translate(143.445 75.415)" fill="#e0e1eb" />
                <rect id="Rectangle_19792" data-name="Rectangle 19792" width="16.998" height="10.74" transform="translate(165.892 75.415)" fill="#e0e1eb" />
                <rect id="Rectangle_19793" data-name="Rectangle 19793" width="16.998" height="10.74" transform="translate(31.215 92.037)" fill="#e0e1eb" />
                <rect id="Rectangle_19794" data-name="Rectangle 19794" width="16.998" height="10.74" transform="translate(53.66 92.037)" fill="#e0e1eb" />
                <rect id="Rectangle_19795" data-name="Rectangle 19795" width="16.998" height="10.74" transform="translate(76.107 92.037)" fill="#e0e1eb" />
                <rect id="Rectangle_19796" data-name="Rectangle 19796" width="16.998" height="10.74" transform="translate(98.553 92.037)" fill="#e0e1eb" />
                <rect id="Rectangle_19797" data-name="Rectangle 19797" width="16.998" height="10.74" transform="translate(120.999 92.037)" fill="#e0e1eb" />
                <rect id="Rectangle_19798" data-name="Rectangle 19798" width="16.998" height="10.74" transform="translate(143.445 92.037)" fill="#e0e1eb" />
                <rect id="Rectangle_19799" data-name="Rectangle 19799" width="16.998" height="10.74" transform="translate(165.892 92.037)" fill="#e0e1eb" />
                <path id="Path_44708" data-name="Path 44708" d="M111.667,82.99A13.262,13.262,0,1,1,98.4,69.728,13.262,13.262,0,0,1,111.667,82.99Z" transform="translate(-14.396 -11.789)" fill="#89163a" />
                <path id="Path_44709" data-name="Path 44709" d="M97.148,85.6l2.72,3.887,6.347-10.116" transform="translate(-16.425 -13.419)" fill="none" stroke="#fff" stroke-linecap="round" stroke-linejoin="round" stroke-width="4.171" />
                <path id="Path_44710" data-name="Path 44710" d="M207.723,92.689c4.528,1.295,18.22,22.652,18.363,24.64.161,2.238-8.578,13.1-8.578,13.1l-6.39-2.87s5.207-8.935,4.428-9.856-11.52-13.826-11.52-13.826Z" transform="translate(-34.496 -15.671)" fill="#7785e0" fill-rule="evenodd" />
                <path id="Path_44711" data-name="Path 44711" d="M151.135,78.924l-12.741-3.36,7.045,10.985Z" transform="translate(-23.399 -12.776)" fill="#172d59" fill-rule="evenodd" />
                <path id="Path_44712" data-name="Path 44712" d="M151.619,79.146,143,76.873c-1.386.29-1.979,1.177-1.662,2.747l4.586,7.146Z" transform="translate(-23.883 -12.997)" fill="#eff1f7" fill-rule="evenodd" />
                <path id="Path_44713" data-name="Path 44713" d="M219.287,136.8h0c1.737-2.077.941-5.472-1.77-7.55l-64.273-49.28c-2.71-2.077-9.025,5.467-6.315,7.544l64.272,49.28c2.71,2.077,6.348,2.077,8.085.006" transform="translate(-24.73 -13.46)" fill="#9ea7d9" />
                <path id="Path_44714" data-name="Path 44714" d="M230.989,145.1c1.47-2.234,1.775-4.576.681-5.229s-3.172.628-4.642,2.863-1.775,4.576-.681,5.229,3.172-.628,4.642-2.863" transform="translate(-38.158 -23.619)" fill="#eff1f7" fill-rule="evenodd" />
                <path id="Path_44715" data-name="Path 44715" d="M231.772,139.9l5.442,4.191-5.8,7.706-5.128-3.929Z" transform="translate(-38.258 -23.654)" fill="#eff1f7" fill-rule="evenodd" />
                <path id="Path_44716" data-name="Path 44716" d="M237.451,150.1c1.47-2.234,1.775-4.576.681-5.229s-3.172.628-4.642,2.863-1.775,4.576-.681,5.229,3.172-.628,4.642-2.863" transform="translate(-39.251 -24.466)" fill="#4e62e0" fill-rule="evenodd" />
                <path id="Path_44717" data-name="Path 44717" d="M238.232,144.909l5.442,4.191-5.8,7.705-5.128-3.929Z" transform="translate(-39.351 -24.5)" fill="#4e62e0" fill-rule="evenodd" />
                <path id="Path_44718" data-name="Path 44718" d="M243.616,154.935c1.5-2.176,1.877-4.447.831-5.069s-3.115.632-4.62,2.809-1.877,4.447-.831,5.069,3.115-.632,4.62-2.809" transform="translate(-40.308 -25.312)" fill="#3e51c9" fill-rule="evenodd" />
                <line id="Line_145" data-name="Line 145" x2="63.852" y2="49.18" transform="translate(124.463 67.801)" fill="none" stroke="#7e85b3" stroke-linecap="round" stroke-linejoin="round" stroke-width="3.873" />
                <path id="Path_44719" data-name="Path 44719" d="M165.392,227.828c0,1.306,11.237,2.365,25.1,2.365s25.1-1.059,25.1-2.365-11.237-2.365-25.1-2.365-25.1,1.059-25.1,2.365" transform="translate(-27.964 -38.12)" fill="#e3e7fa" fill-rule="evenodd" />
                <path id="Path_44720" data-name="Path 44720" d="M212.4,211.916s5.456-22.711,1.884-31.7l2.81-23.425L205.022,150.4l3.241,61.738Z" transform="translate(-34.664 -25.429)" fill="#e3633d" fill-rule="evenodd" />
                <path id="Path_44721" data-name="Path 44721" d="M207.719,223.485l-2.077,1.949a20.7,20.7,0,0,1-3.7,1.51c-.339.637.239.973.74,1.057l9.032-.189s2.106-.433.473-4.449c-1.68.725-4.106,1.372-4.466.123" transform="translate(-34.126 -37.765)" fill="#89163a" fill-rule="evenodd" />
                <path id="Path_44722" data-name="Path 44722" d="M203.916,154.648l.44,26.906,2,26.156h10.508a35.919,35.919,0,0,1-.322-5.991c.247-1.443,1.87-15.13-.763-21.427l2.576-28.433Z" transform="translate(-34.477 -25.676)" fill="#abb6eb" fill-rule="evenodd" />
                <path id="Path_44723" data-name="Path 44723" d="M209.688,153.823l-1.844,27.284q-.066.988-.038,1.979l.714,24.954h-2.368l-2-26.156-1.443-26.713Z" transform="translate(-34.273 -26.008)" fill="#9ea7d9" fill-rule="evenodd" />
                <path id="Path_44724" data-name="Path 44724" d="M187.7,211.715s8.453-22.711,6.066-31.7l9.258-30.809-14.576.99-4.9,61.738Z" transform="translate(-31.032 -25.227)" fill="#e3633d" fill-rule="evenodd" />
                <path id="Path_44725" data-name="Path 44725" d="M212.1,132.028l-19.68-.373c-3.29.864-4.19,19.527-4.19,19.527l13.212,1.6c1.557.124,3.816-.317,5.4-.194,4.653.362,8.24.73,8.891-3.883,1.59-11.34-3.629-16.677-3.629-16.677" transform="translate(-31.826 -22.26)" fill="#abb6eb" fill-rule="evenodd" />
                <path id="Path_44726" data-name="Path 44726" d="M187.262,154.384l-3.605,27.6L182.2,208.137h10.508a36.028,36.028,0,0,1,.468-5.991c.437-1.443,3.866-15.13,2.065-21.427l5.963-25.644Z" transform="translate(-30.806 -26.102)" fill="#abb6eb" fill-rule="evenodd" />
                <path id="Path_44727" data-name="Path 44727" d="M199.628,92.281l1.124,5.035a1.721,1.721,0,0,0,1.175,1.274,1.691,1.691,0,0,0,1.673-.409l.42-.41a2.222,2.222,0,0,0,.553-2.3l-1.958-5.852Z" transform="translate(-33.752 -15.153)" fill="#c95836" fill-rule="evenodd" />
                <path id="Path_44728" data-name="Path 44728" d="M199.879,94.629l.5,1.624,1.24-1.776Z" transform="translate(-33.795 -15.974)" fill="#89163a" fill-rule="evenodd" />
                <path id="Path_44729" data-name="Path 44729" d="M203.559,88.224a1.5,1.5,0,0,0-1.086-1.81l-2.765-.681a1.579,1.579,0,0,0-1.791,1.1,16.175,16.175,0,0,0-.764,4.347,1.813,1.813,0,0,0,1.2,1.9c.848.209,3.588.018,4.2-1.455a21.74,21.74,0,0,0,1-3.4" transform="translate(-33.332 -14.491)" fill="#c95836" fill-rule="evenodd" />
                <path id="Path_44730" data-name="Path 44730" d="M206.464,91.541s.313-4.364-.831-5.636c-1.994-2.21-4.352-2.659-6.935-.816a10.664,10.664,0,0,0,3.927,7.069Z" transform="translate(-33.595 -14.192)" fill="#89163a" fill-rule="evenodd" />
                <path id="Path_44731" data-name="Path 44731" d="M201.7,91.276a1.121,1.121,0,0,1-1.513.46,1.147,1.147,0,0,1-.162-1.589,1.122,1.122,0,0,1,1.514-.46,1.147,1.147,0,0,1,.162,1.589" transform="translate(-33.778 -15.142)" fill="#c95836" fill-rule="evenodd" />
                <path id="Path_44732" data-name="Path 44732" d="M193.827,98.893l7.036-2.332,2.189.049,7.821,2.95c.386-.574,2.141,3.313,2.214,7.387l.189,7.4c2.576,6.462,3.164,13.021,3.414,19.881-10.546,5-24.692,4.118-28.57-.582,2.559-15.372-3.03-19.959,5.706-34.755" transform="translate(-31.807 -16.326)" fill="#7785e0" fill-rule="evenodd" />
                <line id="Line_146" data-name="Line 146" x1="4.711" y2="0.155" transform="translate(170.308 130.329)" fill="none" stroke="#455c8a" stroke-linecap="round" stroke-linejoin="round" stroke-width="2.37" />
                <path id="Path_44733" data-name="Path 44733" d="M205.45,85.389a18.584,18.584,0,0,1,4.141,4.915c1.656,2.951,8.994,4.4,7.88,7.645s5.125,3.382,5.675,8.527-2.045,8.61-5.567,9.318-8.452-3.939-7.8-7.92-4.653-1.773-5.508-6.892-2.02-10.159-2.02-10.159Z" transform="translate(-34.195 -14.437)" fill="#89163a" fill-rule="evenodd" />
                <path id="Path_44734" data-name="Path 44734" d="M163.064,101.24l-1.784-2.779a2.759,2.759,0,0,0-1.533-1.152l-2.562-.763a1.33,1.33,0,0,0-1.71,1.372l2.44,3.365a4.155,4.155,0,0,0,2.378,1.536l1.653.408Z" transform="translate(-26.286 -16.314)" fill="#e3633d" />
                <path id="Path_44735" data-name="Path 44735" d="M160.238,104.944l4.106-3.347,8.929,8.935,13.159-10.063a12.481,12.481,0,0,1,2.947-1.212c1.3-.269-.249,12.92-.249,12.92l-11.514,9.513s-5.961,1.413-8.713-2.934-8.667-13.816-8.667-13.816" transform="translate(-27.092 -16.781)" fill="#7785e0" fill-rule="evenodd" />
                <line id="Line_147" data-name="Line 147" y1="8.278" x2="3.913" transform="translate(156.918 92.177)" fill="none" stroke="#172d59" stroke-linecap="round" stroke-linejoin="round" stroke-width="2.37" />
                <path id="Path_44736" data-name="Path 44736" d="M182.443,223.485l-2.077,1.949a20.7,20.7,0,0,1-3.7,1.51c-.339.637.239.973.74,1.057l9.032-.189s2.106-.433.473-4.449c-1.68.725-4.106,1.372-4.466.123" transform="translate(-29.853 -37.765)" fill="#89163a" fill-rule="evenodd" />
                <path id="Path_44737" data-name="Path 44737" d="M221.771,128.855c0-.032-1.2-5.851-1.2-5.851" transform="translate(-37.293 -20.797)" fill="none" stroke="#172d59" stroke-linecap="round" stroke-linejoin="round" stroke-width="2.37" />
                <path id="Path_44738" data-name="Path 44738" d="M87.529,224.515c0,2.2-15.415,3.988-34.432,3.988s-34.431-1.786-34.431-3.988,15.415-3.988,34.431-3.988,34.432,1.786,34.432,3.988" transform="translate(-3.156 -37.286)" fill="#e3e7fa" fill-rule="evenodd" />
                <path id="Path_44739" data-name="Path 44739" d="M56.112,168.946h0a21.055,21.055,0,0,1-21.055-21.055v-14.1h42.11v14.1a21.055,21.055,0,0,1-21.055,21.055" transform="translate(-5.927 -22.62)" fill="#eff1f7" />
                <path id="Path_44740" data-name="Path 44740" d="M56.112,179.829h0a21.055,21.055,0,0,1,21.055,21.055v14.1H35.057v-14.1a21.055,21.055,0,0,1,21.055-21.055" transform="translate(-5.927 -30.405)" fill="#eff1f7" />
                <path id="Path_44741" data-name="Path 44741" d="M56.1,183.392h1.038A16.606,16.606,0,0,1,73.747,200v13.4H39.494V200A16.606,16.606,0,0,1,56.1,183.392Z" transform="translate(-6.677 -31.007)" fill="#abb6eb" />
                <path id="Path_44742" data-name="Path 44742" d="M64.622,180.134H54.857q4.17-2.372,0-4.745h9.765c-1.958,1.488-4.15,2.966,0,4.745" transform="translate(-9.275 -29.654)" fill="#fff" />
                <path id="Path_44743" data-name="Path 44743" d="M43.657,163.194s4.072,6.814,10.121,8.6S55,179.171,52.2,181h10.07s-5.285-6.179-2.136-8.7c2.136-1.713,9.612-4.475,12.205-9.1Z" transform="translate(-7.381 -27.592)" fill="#abb6eb" fill-rule="evenodd" />
                <g id="Group_44677" data-name="Group 44677" transform="translate(45.827 111.169)" opacity="0.54">
                    <g id="Group_44676" data-name="Group 44676">
                        <g id="Group_44675" data-name="Group 44675" clip-path="url(#clip-path-13)">
                            <g id="Group_44674" data-name="Group 44674">
                                <g id="Group_44673" data-name="Group 44673" clip-path="url(#clip-path-14)">
                                    <path id="Path_44744" data-name="Path 44744" d="M80.564,147.891v-14.1h-8.7v14.1a21.062,21.062,0,0,1-16.09,20.465h.2l-.479.364q2.687,1.806.544,3.611-.447.074-.887.166a21.059,21.059,0,0,1,16.716,20.6v14.1h8.7V193.1a21.061,21.061,0,0,0-17.252-20.712c-2.193-1.47-.332-2.747,1.359-4.032h-.2a21.063,21.063,0,0,0,16.09-20.465" transform="translate(-55.152 -133.789)" fill="#909ecf" />
                                </g>
                            </g>
                        </g>
                    </g>
                </g>
            </g>
        </g>
        <g id="Group_44681" data-name="Group 44681" transform="translate(26.155 107.398)">
            <g id="Group_44680" data-name="Group 44680" clip-path="url(#clip-path-15)">
                <path id="Path_44745" data-name="Path 44745" d="M75.378,137.57H35.637a4.16,4.16,0,1,1,0-8.319H75.377a4.16,4.16,0,1,1,0,8.319" transform="translate(-31.477 -129.251)" fill="#ffe756" />
            </g>
        </g>
        <g id="Group_44683" data-name="Group 44683" transform="translate(26.155 180.033)">
            <g id="Group_44682" data-name="Group 44682" clip-path="url(#clip-path-15)">
                <path id="Path_44746" data-name="Path 44746" d="M35.639,216.666H75.38a4.16,4.16,0,1,1,.022,8.319H35.639a4.16,4.16,0,0,1,0-8.319" transform="translate(-31.479 -216.666)" fill="#ffe756" />
            </g>
        </g>
        <g id="Group_44685" data-name="Group 44685">
            <g id="Group_44684" data-name="Group 44684" clip-path="url(#clip-path)">
                <circle id="Ellipse_529" data-name="Ellipse 529" cx="15.66" cy="15.66" r="15.66" transform="translate(163.357 16.466)" fill="none" stroke="#70193d" stroke-linecap="round" stroke-width="3.107" />
                <path id="Path_44747" data-name="Path 44747" d="M214.825,27.005V37.281h7.994" transform="translate(-36.321 -4.566)" fill="none" stroke="#70193d" stroke-linecap="round" stroke-linejoin="round" stroke-width="3.107" />
            </g>
        </g>
    </g>
</svg>
