<svg xmlns="http://www.w3.org/2000/svg" xmlns:xlink="http://www.w3.org/1999/xlink" width="130.57" height="67.081" viewBox="0 0 130.57 67.081">
  <defs>
    <clipPath id="clip-path">
      <rect id="Rectangle_19758" data-name="Rectangle 19758" width="130.571" height="67.081" fill="none"/>
    </clipPath>
  </defs>
  <g id="Group_44766" data-name="Group 44766" transform="translate(0 0)">
    <rect id="Rectangle_19756" data-name="Rectangle 19756" width="5.497" height="29.553" transform="translate(69.514 0.001)" fill="#35363b"/>
    <g id="Group_44648" data-name="Group 44648" transform="translate(0 0)">
      <g id="Group_44647" data-name="Group 44647" clip-path="url(#clip-path)">
        <path id="Path_44685" data-name="Path 44685" d="M79.044,35.8a11.36,11.36,0,0,0,3.761-.507,3.477,3.477,0,0,0,2-1.664,6.226,6.226,0,0,0,.6-2.893V20.269h5.5V30.735a12.234,12.234,0,0,1-1.326,5.882A9.268,9.268,0,0,1,85.867,40.4a12.571,12.571,0,0,1-5.809,1.423Z" transform="translate(-7.416 -1.902)" fill="#35363b"/>
        <path id="Path_44686" data-name="Path 44686" d="M111.513,35.8a11.36,11.36,0,0,0,3.761-.507,3.477,3.477,0,0,0,2-1.664,6.226,6.226,0,0,0,.6-2.893V20.269h5.5V30.735a12.234,12.234,0,0,1-1.326,5.882,9.268,9.268,0,0,1-3.713,3.785,12.574,12.574,0,0,1-5.809,1.423Z" transform="translate(-10.463 -1.902)" fill="#35363b"/>
        <path id="Path_44687" data-name="Path 44687" d="M108.064,14.226v9.011H100.81V0h-5.5V29.553H113.56V14.226Z" transform="translate(-8.943 0)" fill="#35363b"/>
        <path id="Path_44688" data-name="Path 44688" d="M98.433,41.986a2.957,2.957,0,0,1-2.217-.893,3.028,3.028,0,0,1-.868-2.194,2.926,2.926,0,0,1,.868-2.194,3.308,3.308,0,0,1,4.411,0,2.882,2.882,0,0,1,.893,2.194,3.05,3.05,0,0,1-3.087,3.086" transform="translate(-8.946 -3.365)" fill="#70193d"/>
        <path id="Path_44689" data-name="Path 44689" d="M106.259,41.986a2.9,2.9,0,0,1-2.169-.893,3.023,3.023,0,0,1-.867-2.194,2.922,2.922,0,0,1,.867-2.194,2.99,2.99,0,0,1,2.169-.843,3.055,3.055,0,0,1,2.219.843,2.929,2.929,0,0,1,.868,2.194,3.031,3.031,0,0,1-.868,2.194,2.961,2.961,0,0,1-2.219.893" transform="translate(-9.685 -3.365)" fill="#70193d"/>
        <path id="Path_44690" data-name="Path 44690" d="M43.475,16.674a2.957,2.957,0,0,1-2.217-.893,3.028,3.028,0,0,1-.868-2.194,2.926,2.926,0,0,1,.868-2.194,3.308,3.308,0,0,1,4.411,0,2.882,2.882,0,0,1,.893,2.194,3.05,3.05,0,0,1-3.087,3.086" transform="translate(-3.79 -0.99)" fill="#70193d"/>
        <path id="Path_44691" data-name="Path 44691" d="M52.134,16.674a2.9,2.9,0,0,1-2.169-.893,3.023,3.023,0,0,1-.867-2.194,2.922,2.922,0,0,1,.867-2.194,2.99,2.99,0,0,1,2.169-.843,3.055,3.055,0,0,1,2.219.843,2.929,2.929,0,0,1,.868,2.194,3.031,3.031,0,0,1-.868,2.194,2.961,2.961,0,0,1-2.219.893" transform="translate(-4.607 -0.99)" fill="#70193d"/>
        <path id="Path_44692" data-name="Path 44692" d="M121.245,16.009a2.9,2.9,0,0,1-2.169-.893,3.023,3.023,0,0,1-.867-2.194,2.922,2.922,0,0,1,.867-2.194,2.99,2.99,0,0,1,2.169-.843,3.055,3.055,0,0,1,2.219.843,2.929,2.929,0,0,1,.868,2.194,3.031,3.031,0,0,1-.868,2.194,2.961,2.961,0,0,1-2.219.893" transform="translate(-11.091 -0.927)" fill="#70193d"/>
        <path id="Path_44693" data-name="Path 44693" d="M28.621,22.11V16.225h-5.5v12.2h40.52v2.65h5.5V22.11Z" transform="translate(-2.17 -1.522)" fill="#35363b"/>
        <path id="Path_44694" data-name="Path 44694" d="M.616,44.541H11.055L0,59.441v4.247H18.839V58.55H8.06l11.054-14.9V39.4H.616Z" transform="translate(0 -3.697)" fill="#35363b"/>
        <rect id="Rectangle_19757" data-name="Rectangle 19757" width="16.749" height="5.995" transform="translate(20.693 59.93) rotate(-88.857)" fill="#35363b"/>
        <path id="Path_44695" data-name="Path 44695" d="M42.553,47.719l-2.889,9.623L36.8,47.719H30.428l6.355,15.888-3.615,7.952h5.994L42.04,64.5l6.884-16.783Z" transform="translate(-2.855 -4.477)" fill="#35363b"/>
        <path id="Path_44696" data-name="Path 44696" d="M62.263,48.8a5.813,5.813,0,0,0-1.438-.893,7.153,7.153,0,0,0-2.877-.565A7.771,7.771,0,0,0,53.8,48.455a7.686,7.686,0,0,0-2.842,3.1,9.7,9.7,0,0,0-1.028,4.521,9.519,9.519,0,0,0,1.028,4.47,7.84,7.84,0,0,0,2.842,3.1,7.686,7.686,0,0,0,4.146,1.13,6.965,6.965,0,0,0,2.877-.583,6.059,6.059,0,0,0,1.438-.9v1.142h5.858V47.684H62.263ZM59.215,59.467a3.242,3.242,0,0,1-1.678-.445,3.062,3.062,0,0,1-1.164-1.216,3.7,3.7,0,0,1-.411-1.764,3.488,3.488,0,0,1,.429-1.729A3.342,3.342,0,0,1,60.945,53.1a3.137,3.137,0,0,1,1.148,1.2,3.6,3.6,0,0,1,.41,1.747,3.441,3.441,0,0,1-.908,2.467,3.128,3.128,0,0,1-2.381.959" transform="translate(-4.685 -4.442)" fill="#35363b"/>
        <path id="Path_44697" data-name="Path 44697" d="M85,47.649a7.1,7.1,0,0,0-6.319,1.106V47.684H72.724V64.432h5.961V55.322a2.948,2.948,0,0,1,.651-2.072,2.353,2.353,0,0,1,1.815-.7,3.138,3.138,0,0,1,1.114.188,1.933,1.933,0,0,1,.77.5l3.46-4.624A3.741,3.741,0,0,0,85,47.649" transform="translate(-6.823 -4.442)" fill="#35363b"/>
        <path id="Path_44698" data-name="Path 44698" d="M98.776,48.8a5.813,5.813,0,0,0-1.438-.893,7.153,7.153,0,0,0-2.877-.565,7.771,7.771,0,0,0-4.146,1.114,7.686,7.686,0,0,0-2.842,3.1,9.7,9.7,0,0,0-1.028,4.521,9.519,9.519,0,0,0,1.028,4.47,7.84,7.84,0,0,0,2.842,3.1,7.686,7.686,0,0,0,4.146,1.13,6.965,6.965,0,0,0,2.877-.583,6.059,6.059,0,0,0,1.438-.9v1.142h5.857V47.684H98.776ZM95.728,59.467a3.242,3.242,0,0,1-1.678-.445,3.062,3.062,0,0,1-1.164-1.216,3.7,3.7,0,0,1-.411-1.764,3.487,3.487,0,0,1,.429-1.729A3.342,3.342,0,0,1,97.458,53.1a3.137,3.137,0,0,1,1.148,1.2,3.6,3.6,0,0,1,.41,1.747,3.441,3.441,0,0,1-.908,2.467,3.128,3.128,0,0,1-2.381.959" transform="translate(-8.111 -4.442)" fill="#35363b"/>
        <path id="Path_44699" data-name="Path 44699" d="M120.436,48.8A5.8,5.8,0,0,0,119,47.906a7.142,7.142,0,0,0-2.876-.565,7.766,7.766,0,0,0-4.145,1.114,7.688,7.688,0,0,0-2.843,3.1,9.7,9.7,0,0,0-1.028,4.521,9.518,9.518,0,0,0,1.028,4.47,7.842,7.842,0,0,0,2.843,3.1,7.681,7.681,0,0,0,4.145,1.13A6.955,6.955,0,0,0,119,64.193a6.073,6.073,0,0,0,1.439-.9v1.141h5.857V47.684h-5.857Zm-3.048,10.667a3.241,3.241,0,0,1-1.678-.445,3.056,3.056,0,0,1-1.164-1.216,3.7,3.7,0,0,1-.411-1.764,3.487,3.487,0,0,1,.429-1.729,3.342,3.342,0,0,1,4.555-1.217,3.144,3.144,0,0,1,1.148,1.2,3.6,3.6,0,0,1,.41,1.747,3.441,3.441,0,0,1-.908,2.467,3.129,3.129,0,0,1-2.381.959" transform="translate(-10.143 -4.442)" fill="#35363b"/>
        <path id="Path_44700" data-name="Path 44700" d="M142.707,47h-3.7V40.084h-5.96V47h-3.7v4.967h3.7V63.752h5.96V51.969h3.7Z" transform="translate(-12.136 -3.761)" fill="#35363b"/>
        <path id="Path_44701" data-name="Path 44701" d="M25.986,43.905A2.989,2.989,0,0,1,23.76,43a3.335,3.335,0,0,1,0-4.538,3.2,3.2,0,0,1,4.5,0,3.384,3.384,0,0,1,0,4.538,3.019,3.019,0,0,1-2.277.908" transform="translate(-2.146 -3.522)" fill="#70193d"/>
      </g>
    </g>
  </g>
</svg>
